<?xml version="1.0" encoding="UTF-8" standalone="no"?>
<!DOCTYPE svg PUBLIC "-//W3C//DTD SVG 1.1//EN" "http://www.w3.org/Graphics/SVG/1.1/DTD/svg11.dtd">
<svg width="100%" height="100%" viewBox="0 0 4961 4961" version="1.1" xmlns="http://www.w3.org/2000/svg" xmlns:xlink="http://www.w3.org/1999/xlink" xml:space="preserve" xmlns:serif="http://www.serif.com/" style="fill-rule:evenodd;clip-rule:evenodd;stroke-linecap:round;stroke-linejoin:round;stroke-miterlimit:1.5;">
    <g id="abacaxi" transform="matrix(3.518653,0,0,3.518653,-3687.776877,-1420.838644)">
        <path d="M1710.962,483.873C1676.437,549.96 1653.424,617.516 1651.555,687.772C1594.7,649.576 1525.874,635.656 1444.009,648.176C1517.988,687.197 1575.875,734.737 1602.606,798.771C1519.942,763.503 1432.896,768.773 1341.895,810.62C1460.205,822.739 1535.454,867.896 1573.175,941.847C1536.799,936.735 1497.834,936.798 1456.595,941.412C1544.493,978.872 1587.61,1023.186 1607.416,1071.068C1672.147,1027.867 1735.642,1021.777 1797.594,1061.945C1840.814,1000.05 1910.183,971.847 1989.547,956.523C1939.725,938.675 1887.903,925.972 1828.341,933.172C1865.286,886.676 1920.644,846.183 1989.547,810.108C1920.032,800.805 1851.569,807.543 1784.833,840.62C1798.361,742.436 1853.655,677.664 1926.256,626.739C1871.599,624.221 1818.771,632.068 1770.369,664.996C1761.563,607.714 1741.999,547.407 1710.962,483.873Z" style="fill:url(#_Linear1);"/>
        <g>
            <path d="M1570.226,939.876C1646.959,952.353 1702.04,987.273 1731.173,1036.149" style="fill:none;stroke:white;stroke-width:3.65px;"/>
            <path d="M1791.928,835.693C1740.283,864.871 1689.55,911.358 1656.805,967.136" style="fill:none;stroke:white;stroke-width:3.65px;"/>
            <path d="M1598.303,794.165C1639.958,817.423 1681.495,853.169 1713.35,893.227" style="fill:none;stroke:white;stroke-width:3.65px;"/>
            <path d="M1771.601,661.893C1746.776,681.142 1724.803,706.692 1706.978,732.94" style="fill:none;stroke:white;stroke-width:3.65px;"/>
            <path d="M1649.83,684.323C1703.511,723.151 1749.47,776.346 1783.551,840.374" style="fill:none;stroke:white;stroke-width:3.65px;"/>
            <path d="M1834.369,930.471C1786.956,937.149 1738.567,956.413 1701.796,997.258" style="fill:none;stroke:white;stroke-width:3.65px;"/>
        </g>
        <g transform="matrix(1.171642,0,0,1.010006,-362.5197,-52.301181)">
            <ellipse cx="1770.03" cy="1421.31" rx="211.941" ry="330.522" style="fill:url(#_Linear2);"/>
        </g>
        <g>
            <g transform="matrix(1.123728,0,0,1.083333,-191.566937,-83.309727)">
                <path d="M1463.003,1429.462C1532.875,1255.483 1637.774,1130.089 1785.183,1063.661" style="fill:none;stroke:white;stroke-width:6.63px;"/>
            </g>
            <path d="M1505.556,1581.886C1583.565,1413.76 1707.369,1268.531 1885.426,1150.429" style="fill:none;stroke:white;stroke-width:7.32px;"/>
            <path d="M1585.282,1678.026C1644.341,1523.285 1751.721,1390.367 1907.702,1279.397L1959.64,1349.743C1898.36,1519.403 1805.629,1656.49 1656.8,1735.475" style="fill:none;stroke:white;stroke-width:7.32px;"/>
            <path d="M1811.332,1328.689C1733.448,1252.535 1667.415,1166.9 1617.608,1068.284L1548.105,1105.59C1577.732,1290.178 1740.968,1442.038 1911.219,1597.127L1900.119,1714.052C1707.449,1590.018 1529.738,1386.704 1483.264,1180.704L1452.451,1306.363C1496.681,1504.035 1603.171,1647.23 1772.461,1735.475" style="fill:none;stroke:white;stroke-width:7.32px;"/>
            <path d="M1697.624,1040.91C1821.287,1111.274 1873.443,1192.187 1882.925,1279.397" style="fill:none;stroke:white;stroke-width:7.32px;"/>
        </g>
    </g>
    <g id="latranja" transform="matrix(3.518653,0,0,3.518653,-3687.776877,-1420.838644)">
        <path d="M2033.2,1121.673C2011.939,1049.278 2030.927,991.977 2125.269,962.933C2183.128,949.9 2233.863,957.448 2278.718,981.982C2319.453,995.538 2353.252,988.288 2382.428,967.166C2377.609,1022.196 2365.447,1077.488 2310,1123.84C2269.694,1148.335 2228.656,1157.01 2162.309,1128.023C2125.953,1118.627 2087.647,1120.935 2046.958,1137.547C2080.57,1061.079 2149.193,1022.37 2256.494,1025.371C2154.442,1002.231 2077.456,1029.222 2033.2,1121.673Z" style="fill:rgb(68,169,1);"/>
        <clipPath id="_clip3">
            <path d="M2033.2,1121.673C2011.939,1049.278 2030.927,991.977 2125.269,962.933C2183.128,949.9 2233.863,957.448 2278.718,981.982C2319.453,995.538 2353.252,988.288 2382.428,967.166C2377.609,1022.196 2365.447,1077.488 2310,1123.84C2269.694,1148.335 2228.656,1157.01 2162.309,1128.023C2125.953,1118.627 2087.647,1120.935 2046.958,1137.547C2080.57,1061.079 2149.193,1022.37 2256.494,1025.371C2154.442,1002.231 2077.456,1029.222 2033.2,1121.673Z"/>
        </clipPath>
        <g clip-path="url(#_clip3)">
            <path d="M2382.428,967.057C2374.389,1065.897 2339.732,1121.418 2271.988,1141.308C2239.71,1152.24 2203.579,1145.762 2162.017,1128.781C2125.911,1120.898 2082.663,1128.278 2045.167,1138.301C2079.259,1063.962 2146.92,1020.433 2255.946,1024.595C2308.984,1019.4 2346.172,993.827 2382.428,967.057Z" style="fill:rgb(36,99,0);"/>
        </g>
        <g transform="matrix(1,0,0,1,30.582693,-6.614168)">
            <circle cx="1962.291" cy="1412.343" r="238.937" style="fill:url(#_Linear4);"/>
        </g>
    </g>
    <g transform="matrix(3.461179,0.633371,-0.633371,3.461179,-2694.458232,-2581.981666)">
        <path d="M1979.138,1179.496C1978.702,1179.417 1978.383,1179.038 1978.38,1178.595C1978.376,1178.151 1978.688,1177.767 1979.122,1177.68C2040.997,1165.729 2110.399,1193.708 2146.796,1236.517C2147.078,1236.855 2147.08,1237.345 2146.802,1237.685C2146.523,1238.025 2146.043,1238.12 2145.656,1237.911C2094.709,1210.462 2039.399,1190.646 1979.138,1179.496Z" style="fill:white;"/>
    </g>
    <g transform="matrix(3.518653,0,0,3.518653,-3687.776877,-1420.838644)">
        <g transform="matrix(0.975313,0,0,1.21543,-25.47961,-485.675206)">
            <path d="M1982.344,1891.748L2531.158,1891.748C2539.472,1891.748 2546.211,1886.34 2546.211,1879.668L2546.211,1740.902C2410.369,1574.213 2024.96,1536.888 1722.266,1646.818C1775.85,1678.84 1881.977,1755.335 1982.344,1891.748Z" style="fill:rgb(37,99,0);"/>
        </g>
        <g transform="matrix(0.911484,0,0,1,173.459141,-28.266356)">
            <path d="M959.531,1581.265C959.452,1571.611 966.326,1563.052 976.446,1560.202C1515.21,1409.099 1821.183,1543.125 1959.64,1841.878L986.423,1841.878C972.718,1841.878 961.58,1831.801 961.478,1819.31C961.034,1765.054 959.916,1628.322 959.531,1581.265Z" style="fill:rgb(68,169,1);"/>
        </g>
        <g transform="matrix(1.031116,0,0,1.01595,-60.975696,-28.926252)">
            <path d="M1667.471,1509.78C1667.598,1509.509 1667.612,1509.501 1667.892,1509.401C1668.071,1509.336 1668.279,1509.371 1668.463,1509.421C1668.599,1509.458 1673.357,1511.511 1673.782,1511.695C1829.513,1578.91 1929.182,1678.294 1980.111,1805.433C1980.693,1806.886 1980.699,1806.885 1981.06,1808.411C1981.142,1808.757 1981.57,1810.569 1981.646,1812.813C1981.658,1813.161 1981.72,1814.982 1981.37,1817.153C1980.856,1820.353 1979.681,1822.829 1979.461,1823.293C1979.241,1823.757 1978.067,1826.234 1975.924,1828.638C1974.47,1830.27 1973.029,1831.357 1972.754,1831.565C1970.979,1832.904 1969.316,1833.695 1968.999,1833.846C1966.957,1834.817 1965.117,1835.265 1964.768,1835.35C1964.428,1835.433 1962.645,1835.867 1960.437,1835.943C1960.095,1835.954 1958.302,1836.016 1956.165,1835.661C1953.015,1835.138 1950.574,1833.946 1950.117,1833.723C1949.66,1833.499 1947.22,1832.307 1944.849,1830.134C1943.24,1828.659 1942.166,1827.197 1941.961,1826.918C1940.638,1825.117 1939.856,1823.43 1939.707,1823.109C1938.902,1821.372 1938.958,1821.348 1938.421,1819.508C1907.746,1714.531 1834.268,1602.087 1668.67,1511.253C1667.839,1510.798 1667.834,1510.806 1667.821,1510.788C1667.496,1510.339 1667.485,1510.346 1667.469,1510.3C1667.379,1510.041 1667.355,1510.027 1667.471,1509.78Z" style="fill:white;"/>
        </g>
    </g>
    <defs>
        <linearGradient id="_Linear1" x1="0" y1="0" x2="1" y2="0" gradientUnits="userSpaceOnUse" gradientTransform="matrix(-191.450137,143.838538,-143.838538,-191.450137,1764.386663,965.835302)"><stop offset="0" style="stop-color:rgb(68,169,1);stop-opacity:1"/><stop offset="1" style="stop-color:rgb(34,85,0);stop-opacity:1"/></linearGradient>
        <linearGradient id="_Linear2" x1="0" y1="0" x2="1" y2="0" gradientUnits="userSpaceOnUse" gradientTransform="matrix(-236.403974,218.885075,-188.688337,-274.236883,1839.340646,1339.543095)"><stop offset="0" style="stop-color:rgb(255,173,1);stop-opacity:1"/><stop offset="1" style="stop-color:rgb(226,112,14);stop-opacity:1"/></linearGradient>
        <linearGradient id="_Linear4" x1="0" y1="0" x2="1" y2="0" gradientUnits="userSpaceOnUse" gradientTransform="matrix(229.738666,-164.448014,164.448014,229.738666,1873.917148,1364.635819)"><stop offset="0" style="stop-color:rgb(255,115,0);stop-opacity:1"/><stop offset="1" style="stop-color:rgb(255,173,1);stop-opacity:1"/></linearGradient>
    </defs>
</svg>
